# xmcd
#
# Track frame offsets:
#	182
#	10032
#	21720
#	31462
#	42440
#	50802
#	60880
#	74927
#	87195
#	97985
#	107810
#	119427
#	129537
#	139620
#	150622
#	162272
#	171795
#	184357
#	195120
#	205210
#	217375
#	226685
#	236410
#	258957
#	268867
#	277520
#	288250
#	300052
#
# Disc length: 4107 seconds
#
# Revision: 0
# Processed by: cddbd v1.4b41PL1 Copyright (c) Steve Scherf et al.
# Submitted via: audiograbber 1.80
#
DISCID=8910091c
DTITLE=ben hall and the remblers with welton myrick - country ways and rockin' da
DTITLE=ys
DYEAR=1900
DGENRE=
TTITLE0=blue days-black nights 1960 
TTITLE1=even tho' 1960
TTITLE2=hanging around 1993
TTITLE3=crying on my shoulder 1993
TTITLE4=make believe 1993 
TTITLE5=sleep less nights 1993 
TTITLE6=gunfighters fame 1993
TTITLE7=late haurs 1959
TTITLE8=don't ask me why 1959
TTITLE9=i' d give anything 1993
TTITLE10=all from loving you 1993
TTITLE11=rose of monterey 1993
TTITLE12=drifting along with the wind 1956
TTITLE13=driftwood on the river 1949
TTITLE14=storly skies 1950
TTITLE15=season for love 1958
TTITLE16=only 17 1958
TTITLE17=that's she way dreams go 1962
TTITLE18=i don't wanna go home 1962
TTITLE19=you're here in my mind 1993
TTITLE20=weeping willow 1993
TTITLE21=before you begin 1993
TTITLE22=johnny law 1993
TTITLE23=hiding alone 1993
TTITLE24=so close 1993
TTITLE25=won't you be mine 1993
TTITLE26=i'll never be the same 1993
TTITLE27=i'll still be hanging around 1993
EXTD=
EXTT0=
EXTT1=
EXTT2=
EXTT3=
EXTT4=
EXTT5=
EXTT6=
EXTT7=
EXTT8=
EXTT9=
EXTT10=
EXTT11=
EXTT12=
EXTT13=
EXTT14=
EXTT15=
EXTT16=
EXTT17=
EXTT18=
EXTT19=
EXTT20=
EXTT21=
EXTT22=
EXTT23=
EXTT24=
EXTT25=
EXTT26=
EXTT27=
PLAYORDER=
